FILE "[PSX] Official U.S. PlayStation Magazine Demo Disc 21 [SCUS-94429].bin" BINARY
  TRACK 01 MODE2/2352
    INDEX 01 00:00:00
  TRACK 02 AUDIO
    PREGAP 00:02:00
    INDEX 01 49:52:46
  TRACK 03 AUDIO
    INDEX 00 50:52:20
    INDEX 01 50:54:20
